<svg
  xmlns="http://www.w3.org/2000/svg"
  width="391"
  height="80"
  viewBox="0 0 846 174"
  
>
  <g data-name="Layer 2">
    <g data-name="Layer 1">
      <path
        d="M243 27a31 31 0 0 0-22-22c-19-5-97-5-97-5S46 0 27 5A31 31 0 0 0 5 27C0 46 0 87 0 87s0 40 5 60a31 31 0 0 0 22 21c19 6 97 6 97 6s78 0 97-6a31 31 0 0 0 22-21c5-20 5-60 5-60s0-41-5-60z"
        style="fill: red"
      />
      <path d="m99 124 65-37-65-37Z" style="fill: #fff" />
      <path
        d="M358 55v6c0 30-13 48-42 48h-5v52h-23V13h30c28 0 40 11 40 42zm-25 3c0-22-4-27-17-27h-5v60h5c12 0 17-9 17-29zm82-7-2 28c-10-2-18 0-22 6v76h-23V53h18l2 23h1c3-17 11-26 21-26a23 23 0 0 1 5 1zm27 64v6c0 19 1 26 9 26s9-6 10-19l21 1c1 24-11 34-32 34-25 0-32-16-32-46V98c0-32 8-47 33-47s32 13 32 46v18Zm0-22v8h18v-8c0-20-2-26-9-26-8 0-9 6-9 26zm162-14v82h-24V81c0-9-2-13-8-13-4 0-8 2-10 7a36 36 0 0 1 0 4v83h-25V81c0-9-2-13-7-13s-8 2-11 7v87h-24V53h19l2 14c6-11 15-16 25-16s16 5 19 14c6-10 14-14 24-14 15 0 20 10 20 28zm13-54c0-12 4-15 13-15s13 4 13 15c0 12-4 15-13 15s-13-3-13-15zm1 28h24v109h-24zm104 0v109h-20l-2-14c-6 11-14 15-24 15-14 0-21-9-21-29V53h25v80c0 9 2 13 7 13a12 12 0 0 0 10-7V53Zm124 26v82h-25V81c0-9-2-13-7-13s-9 2-11 7a36 36 0 0 1 0 4v82h-25V81c0-9-2-13-7-13-4 0-8 2-11 7v87h-24V53h19l2 14c6-11 15-17 25-17 11 0 16 6 19 15 6-10 14-15 24-15 15 1 21 11 21 29z"
        style="fill: #fff"
      />
    </g>
  </g>
</svg>